<?xml version="1.0" encoding="UTF-8"?>
<svg width="95px" height="36px" viewBox="0 0 95 36" version="1.1" xmlns="http://www.w3.org/2000/svg" xmlns:xlink="http://www.w3.org/1999/xlink">
    <!-- Generator: Sketch 53.2 (72643) - https://sketchapp.com -->
    <title>logo</title>
    <desc>Created with Sketch.</desc>
    <g id="官网设计" stroke="none" stroke-width="1" fill="none" fill-rule="evenodd">
        <g id="新闻动态" transform="translate(-116.000000, -19.000000)">
            <g id="Group-9" transform="translate(116.000000, 0.000000)">
                <g id="logo" transform="translate(0.000000, 18.000000)">
                    <g id="Group">
                        <ellipse id="Oval" fill="#1890FF" cx="16.3740458" cy="19" rx="4.03053435" ry="4"></ellipse>
                        <path d="M13.280496,0.616990115 L13.2859606,0.616971084 C13.8348605,0.615059541 14.2813814,1.05848122 14.283293,1.60738112 C14.2833013,1.60976591 14.283301,1.61215072 14.2832921,1.6145355 L14.2311682,15.6414038 C14.2291206,16.1924062 13.7828847,16.6385381 13.2318818,16.6404569 L13.2264172,16.640476 C12.6775172,16.6423875 12.2309963,16.1989658 12.2290848,15.6500659 C12.2290765,15.6476811 12.2290768,15.6452963 12.2290856,15.6429115 L12.2812096,1.61604322 C12.2832571,1.06504079 12.7294931,0.618908982 13.280496,0.616990115 Z" id="Rectangle" fill="#2242BE" transform="translate(13.256189, 8.628724) rotate(26.000000) translate(-13.256189, -8.628724) "></path>
                        <path d="M19.5782059,0.616990115 L19.5836706,0.616971084 C20.1325705,0.615059541 20.5790914,1.05848122 20.5810029,1.60738112 C20.5810112,1.60976591 20.5810109,1.61215072 20.5810021,1.6145355 L20.5288781,15.6414038 C20.5268306,16.1924062 20.0805946,16.6385381 19.5295917,16.6404569 L19.5241271,16.640476 C18.9752272,16.6423875 18.5287063,16.1989658 18.5267947,15.6500659 C18.5267864,15.6476811 18.5267867,15.6452963 18.5267956,15.6429115 L18.5789195,1.61604322 C18.5809671,1.06504079 19.0272031,0.618908982 19.5782059,0.616990115 Z" id="Rectangle" fill="#2242BE" transform="translate(19.553899, 8.628724) scale(-1, 1) rotate(26.000000) translate(-19.553899, -8.628724) "></path>
                        <path d="M5.13328853,18.4629726 L5.1375065,18.462958 C5.68571606,18.4610559 6.13166967,18.9039256 6.13357177,19.4521352 C6.13358004,19.454519 6.13357973,19.4569029 6.13357082,19.4592867 L6.06995317,36.4918225 C6.06789515,37.0428225 5.62165444,37.4889448 5.07065395,37.4908565 L5.06643598,37.4908712 C4.51822642,37.4927733 4.0722728,37.0499036 4.07037071,36.501694 C4.07036243,36.4993102 4.07036275,36.4969263 4.07037165,36.4945425 L4.1339893,19.4620067 C4.13604732,18.9110067 4.58228804,18.4648844 5.13328853,18.4629726 Z" id="Rectangle" fill="#2242BE" transform="translate(5.101971, 27.976915) rotate(26.000000) translate(-5.101971, -27.976915) "></path>
                        <path d="M27.80461,18.4631485 L27.8090415,18.463133 C28.3573763,18.4612219 28.8034388,18.9041857 28.8053499,19.4525205 C28.8053582,19.4549024 28.8053579,19.4572844 28.8053491,19.4596663 L28.7421274,36.4919722 C28.7400822,37.0429751 28.2938473,37.489109 27.7428439,37.4910294 L27.7384124,37.4910449 C27.1900776,37.492956 26.7440152,37.0499921 26.742104,36.5016574 C26.7420957,36.4992755 26.742096,36.4968935 26.7421048,36.4945116 L26.8053265,19.4622057 C26.8073717,18.9112028 27.2536066,18.4650689 27.80461,18.4631485 Z" id="Rectangle" fill="#0EDEDE" transform="translate(27.773727, 27.977089) scale(-1, 1) rotate(26.000000) translate(-27.773727, -27.977089) "></path>
                        <path d="M12.6905404,18.4629726 L12.6947584,18.462958 C13.242968,18.4610559 13.6889216,18.9039256 13.6908237,19.4521352 C13.6908319,19.454519 13.6908316,19.4569029 13.6908227,19.4592867 L13.6272051,36.4918225 C13.6251471,37.0428225 13.1789063,37.4889448 12.6279059,37.4908565 L12.6236879,37.4908712 C12.0754783,37.4927733 11.6295247,37.0499036 11.6276226,36.501694 C11.6276143,36.4993102 11.6276147,36.4969263 11.6276236,36.4945425 L11.6912412,19.4620067 C11.6932992,18.9110067 12.1395399,18.4648844 12.6905404,18.4629726 Z" id="Rectangle" fill="#2242BE" transform="translate(12.659223, 27.976915) scale(-1, 1) rotate(26.000000) translate(-12.659223, -27.976915) "></path>
                        <path d="M19.1330125,23.2196643 L19.1387241,23.2196446 C19.6877311,23.217757 20.1343194,23.6612849 20.136207,24.2102918 C20.1362152,24.2126857 20.1362148,24.2150796 20.1362057,24.2174734 L20.0906807,36.2412119 C20.0885945,36.792204 19.6423429,37.2383002 19.0913501,37.2401947 L19.0856385,37.2402143 C18.5366316,37.2421019 18.0900433,36.7985741 18.0881557,36.2495671 C18.0881474,36.2471733 18.0881479,36.2447794 18.0881569,36.2423855 L18.133682,24.2186471 C18.1357682,23.6676549 18.5820197,23.2215587 19.1330125,23.2196643 Z" id="Rectangle" fill="#2242BE" transform="translate(19.112181, 30.229929) rotate(26.000000) translate(-19.112181, -30.229929) "></path>
                    </g>
                    <path d="M36.1263113,3.45841785 L49.4465093,3.45841785 L49.4465093,13.6460446 L48.110975,13.6460446 L48.110975,13.1313387 L37.4618457,13.1313387 L37.4618457,13.6815416 L36.1263113,13.6815416 L36.1263113,3.45841785 Z M48.110975,4.6653144 L37.4618457,4.6653144 L37.4618457,11.9244422 L48.110975,11.9244422 L48.110975,4.6653144 Z M38.3756323,6.65314402 L42.1889344,6.65314402 C42.2592261,6.1739327 42.2943713,5.62373536 42.2943713,5.0025355 L43.6123329,5.0025355 C43.6123329,5.6000706 43.5801164,6.15026794 43.5156824,6.65314402 L47.2674796,6.65314402 L47.2674796,7.82454361 L43.2872357,7.82454361 C43.2403746,7.98428072 43.1905855,8.13514128 43.1378667,8.27712982 C44.5905605,8.8864973 45.9612268,9.52839419 47.2499068,10.2028398 L46.4591298,11.4629817 C45.088443,10.6169667 43.8085687,9.88928635 42.6194685,9.27991886 C41.7935418,10.3330005 40.5312402,11.1139258 38.8325257,11.6227181 C38.6802271,11.2559143 38.4517828,10.824039 38.1471857,10.3270791 C40.3027958,9.78278971 41.5563111,8.94861955 41.9077693,7.82454361 L38.3756323,7.82454361 L38.3756323,6.65314402 Z M38.4634964,14.3914807 L39.8341765,14.3914807 L39.8341765,17.1602434 C39.8341765,17.8820185 40.2266322,18.2429006 41.0115554,18.2429006 L44.5261196,18.2429006 C45.4281955,18.2429006 45.9612324,17.8879346 46.1252462,17.1779919 C46.242399,16.681032 46.3536924,16.0775898 46.4591298,15.3676471 C46.9511713,15.6042946 47.4197751,15.7876937 47.8649555,15.9178499 C47.7243722,16.6514574 47.5896486,17.2667318 47.4607806,17.7636917 C47.1796141,18.9469295 46.3126969,19.5385396 44.8600032,19.5385396 L40.6952447,19.5385396 C39.2074051,19.5385396 38.4634964,18.7931109 38.4634964,17.3022312 L38.4634964,14.3914807 Z M35.9330103,14.3559838 L37.2509718,14.8174442 C36.7940762,16.2136649 36.1321732,17.6394451 35.2652431,19.0948276 C34.960646,18.9173419 34.5389025,18.6984462 34,18.4381339 C34.8200691,17.1839018 35.4643994,15.8231987 35.9330103,14.3559838 Z M47.8649555,14.8174442 L48.9368975,14.0542596 C49.8272582,15.0836765 50.7058905,16.2787288 51.5728206,17.6394523 L50.3251504,18.5268763 C49.6690951,17.3318061 48.8490384,16.0953411 47.8649555,14.8174442 Z M41.5738857,14.0720081 L42.5755365,13.3088235 C43.3018834,14.0779281 44.0223618,14.9298466 44.7369934,15.8646045 L43.5947601,16.7520284 C42.9504201,15.7936058 42.276802,14.9002746 41.5738857,14.0720081 Z M55.3893179,8.46348884 L59.1850471,8.46348884 L59.1850471,6.13843813 L56.0219394,6.13843813 L56.0219394,4.96703854 L59.1850471,4.96703854 L59.1850471,2.57099391 L60.4502902,2.57099391 L60.4502902,4.96703854 L63.0334949,4.96703854 L63.0334949,6.13843813 L60.4502902,6.13843813 L60.4502902,8.46348884 L61.3377177,8.46348884 C62.5326755,7.19742437 63.537245,5.81897297 64.3514564,4.32809331 L65.5464082,4.98478702 C64.7849155,6.21535436 63.935571,7.37491004 62.9983492,8.46348884 L65.6166995,8.46348884 L65.6166995,9.63488844 L61.9264072,9.63488844 C61.2703519,10.3152502 60.5733037,10.9660212 59.8352415,11.5872211 L64.3338836,11.5872211 L64.3338836,19.8757606 L63.0686405,19.8757606 L63.0686405,18.8108519 L58.5875712,18.8108519 L58.5875712,19.8935091 L57.3223282,19.8935091 L57.3223282,13.4951826 C56.9240089,13.7673273 56.5198381,14.0305937 56.1098035,14.2849899 C55.8872134,13.9181861 55.6001935,13.5277235 55.2487353,13.1135903 C57.0997483,12.0841734 58.7310756,10.9246177 60.1427659,9.63488844 L55.3893179,9.63488844 L55.3893179,8.46348884 Z M70.273497,9.61713996 C71.8433435,10.9187016 72.63997,12.4687199 72.6634006,14.2672414 C72.6634006,16.1485895 71.8960618,17.1839071 70.3613611,17.3732252 C69.7638822,17.4442194 68.9848283,17.420555 68.0241759,17.3022312 C67.9655996,16.8762656 67.8894514,16.3615649 67.7957293,15.7581136 C68.6040831,15.9237669 69.2542709,16.0065923 69.7463124,16.0065923 C70.894409,16.0065923 71.4040157,15.2729958 71.2751477,13.8057809 C71.2400019,12.6462079 70.3847999,11.3328336 68.7095159,9.86561866 C69.3538559,8.57588943 70.1036221,6.89571691 70.958837,4.82505071 L67.5145641,4.82505071 L67.5145641,19.964503 L66.2141754,19.964503 L66.2141754,3.5826572 L72.3470898,3.5826572 L72.3470898,4.96703854 C71.7144651,6.55257723 71.0232744,8.10259554 70.273497,9.61713996 Z M63.0686405,12.7053753 L58.5875712,12.7053753 L58.5875712,14.6577079 L63.0686405,14.6577079 L63.0686405,12.7053753 Z M58.5875712,17.6926978 L63.0686405,17.6926978 L63.0686405,15.7403651 L58.5875712,15.7403651 L58.5875712,17.6926978 Z M90.0636882,13.8412779 C91.1883543,15.3913194 92.4008668,17.1720657 93.701262,19.18357 C93.2326512,19.4557147 92.7757624,19.7278553 92.330582,20 C92.0025544,19.4497944 91.6803893,18.9173454 91.3640769,18.4026369 C87.5214676,18.7221111 84.5106877,18.9883356 82.3316471,19.2013185 L81.6814527,17.6572008 C82.4195149,17.3258942 83.1399933,16.6337105 83.8429097,15.5806288 C84.6161176,14.4683852 85.3336673,13.2969974 85.9955802,12.06643 L81.3827148,12.06643 L81.3827148,10.7885396 L86.9005805,10.7885396 L86.9005805,7.02586207 L82.243783,7.02586207 L82.243783,5.7479716 L86.9005805,5.7479716 L86.9005805,2.5 L88.3064061,2.5 L88.3064061,5.7479716 L93.1740774,5.7479716 L93.1740774,7.02586207 L88.3064061,7.02586207 L88.3064061,10.7885396 L94,10.7885396 L94,12.06643 L87.7616487,12.06643 C86.4553958,14.2376714 85.1784503,16.1130753 83.9307738,17.6926978 C86.1625332,17.5862064 88.3942591,17.4264717 90.6260184,17.2134888 C90.0226819,16.2609824 89.4486422,15.3853995 88.903882,14.586714 L90.0636882,13.8412779 Z M79.1685394,12.4213996 C79.6020045,12.6107176 80.0647508,12.805949 80.5567922,13.0070994 C79.7250079,15.527396 78.9986719,17.8050946 78.3777624,19.8402637 L76.8664999,19.3255578 C77.6397078,17.2430592 78.4070467,14.9416962 79.1685394,12.4213996 Z M77.446403,7.32758621 C78.3250484,7.95470226 79.3559769,8.75929191 80.5392194,9.74137931 C80.1057543,10.2383392 79.7660165,10.6228857 79.5199958,10.8950304 C78.19617,9.69996022 77.2121019,8.85395786 76.5677619,8.35699797 L77.446403,7.32758621 Z M78.131743,2.73073022 C79.0689647,3.48800243 80.0764631,4.35175309 81.1542681,5.32200811 C80.7559488,5.73614135 80.4103535,6.10293958 80.1174717,6.42241379 C79.0396666,5.34566737 78.0790287,4.44050401 77.2355291,3.70689655 L78.131743,2.73073022 Z" id="恩都法" stroke="#2242BE" stroke-width="0.1" fill="#2242BE"></path>
                    <path d="M36.5,34.2493404 L36.5,24.7506596 L42.9171715,24.7506596 L42.9171715,25.5158311 L37.4109972,25.5158311 L37.4109972,28.9459103 L42.3812908,28.9459103 L42.3812908,29.7110818 L37.4109972,29.7110818 L37.4109972,33.4841689 L43.0511417,33.4841689 L43.0511417,34.2493404 L36.5,34.2493404 Z M45.596575,25.9643799 L45.569781,25.9643799 L45.569781,34.2493404 L44.6587838,34.2493404 L44.6587838,24.7506596 L45.6903541,24.7506596 L51.2635135,33.0488127 L51.2903075,33.0488127 L51.2903075,24.7506596 L52.2013048,24.7506596 L52.2013048,34.2493404 L51.1429404,34.2493404 L45.596575,25.9643799 Z M54.3582246,34.2493404 L54.3582246,24.7506596 L57.653891,24.7506596 C57.9218327,24.7506596 58.1853047,24.7572559 58.444315,24.7704485 C58.7033253,24.7836412 58.9578661,24.8144237 59.207945,24.8627968 C59.4580239,24.91117 59.7014006,24.9837286 59.9380825,25.0804749 C60.1747643,25.1772212 60.4047441,25.3047485 60.6280289,25.4630607 C60.9495589,25.6917338 61.213031,25.9709746 61.4184529,26.3007916 C61.6238749,26.6306085 61.7868703,26.9780105 61.9074441,27.3430079 C62.0280178,27.7080053 62.1128648,28.0773948 62.1619874,28.4511873 C62.2111101,28.8249799 62.235671,29.1701831 62.235671,29.4868074 C62.235671,29.8034317 62.2155757,30.1244487 62.1753844,30.4498681 C62.1351932,30.7752875 62.0704416,31.0941057 61.9811277,31.4063325 C61.8918138,31.7185592 61.7734746,32.0175887 61.6261067,32.3034301 C61.4787388,32.5892714 61.2934152,32.8509223 61.0701305,33.0883905 C60.8468457,33.3346538 60.603469,33.532541 60.339993,33.682058 C60.076517,33.8315751 59.7996481,33.9481086 59.5093779,34.0316623 C59.2191077,34.1152159 58.9176779,34.1723833 58.6050792,34.2031662 C58.2924806,34.2339491 57.975421,34.2493404 57.653891,34.2493404 L54.3582246,34.2493404 Z M55.2692218,33.4841689 L57.4529357,33.4841689 C57.8637796,33.4841689 58.2500564,33.4599827 58.6117777,33.4116095 C58.973499,33.3632363 59.3419133,33.2423053 59.7170317,33.0488127 C60.0385617,32.8905005 60.3020338,32.6750234 60.5074557,32.4023747 C60.7128777,32.129726 60.8758731,31.8328952 60.9964469,31.5118734 C61.1170206,31.1908515 61.2018676,30.8544433 61.2509902,30.5026385 C61.3001129,30.1508338 61.3246738,29.8122268 61.3246738,29.4868074 C61.3246738,29.1437978 61.3023457,28.794197 61.2576887,28.4379947 C61.2130318,28.0817924 61.1281848,27.7431854 61.0031454,27.4221636 C60.8781059,27.1011418 60.7084121,26.8065097 60.4940587,26.5382586 C60.2797054,26.2700075 60.0028364,26.047934 59.6634436,25.8720317 C59.3776391,25.7225146 59.0382514,25.6257698 58.6452703,25.5817942 C58.2522891,25.5378186 57.8548482,25.5158311 57.4529357,25.5158311 L55.2692218,25.5158311 L55.2692218,33.4841689 Z M63.6557549,29.5131926 C63.6557549,28.8183782 63.7517659,28.1675492 63.9437908,27.560686 C64.1358157,26.9538228 64.419383,26.4239249 64.7945014,25.9709763 C65.1696198,25.5180276 65.6340451,25.1596319 66.1877912,24.8957784 C66.7415374,24.6319248 67.3801222,24.5 68.1035648,24.5 C68.8538015,24.5 69.5124816,24.6297261 70.0796249,24.8891821 C70.6467681,25.1486381 71.1201247,25.504835 71.4997088,25.9577836 C71.8792928,26.4107323 72.165093,26.942829 72.3571179,27.5540897 C72.5491428,28.1653505 72.6451538,28.8183782 72.6451538,29.5131926 C72.6451538,30.1992119 72.5491428,30.8434447 72.3571179,31.4459103 C72.165093,32.0483759 71.8815256,32.5760751 71.5064073,33.0290237 C71.1312889,33.4819724 70.662398,33.8403681 70.0997204,34.1042216 C69.5370429,34.3680752 68.8850612,34.5 68.1437558,34.5 C67.4024505,34.5 66.7504688,34.3680752 66.1877912,34.1042216 C65.6251137,33.8403681 65.1562228,33.4819724 64.7811044,33.0290237 C64.405986,32.5760751 64.1246515,32.0483759 63.9370923,31.4459103 C63.7495331,30.8434447 63.6557549,30.1992119 63.6557549,29.5131926 Z M68.1571528,33.7348285 C68.7823501,33.7348285 69.3204583,33.6182949 69.7714935,33.3852243 C70.2225287,33.1521536 70.5931758,32.8421303 70.8834459,32.4551451 C71.1737161,32.0681599 71.3880663,31.6196156 71.5265028,31.1094987 C71.6649393,30.5993818 71.7341566,30.0672851 71.7341566,29.5131926 C71.7341566,28.8535587 71.6515425,28.2620958 71.4863117,27.7387863 C71.321081,27.2154767 71.0821699,26.7691311 70.7695713,26.3997361 C70.4569727,26.0303412 70.0773943,25.7489016 69.6308248,25.555409 C69.1842553,25.3619164 68.684105,25.2651715 68.1303588,25.2651715 C67.5140929,25.2651715 66.9804504,25.3839038 66.5294152,25.621372 C66.07838,25.8588402 65.7077329,26.173261 65.4174627,26.5646438 C65.1271926,26.9560266 64.9128424,27.4067697 64.7744059,27.9168865 C64.6359693,28.4270034 64.5667521,28.9591001 64.5667521,29.5131926 C64.5667521,30.0760802 64.6359693,30.6125744 64.7744059,31.1226913 C64.9128424,31.6328082 65.1271926,32.0813525 65.4174627,32.4683377 C65.7077329,32.855323 66.07838,33.1631475 66.5294152,33.3918206 C66.9804504,33.6204937 67.5230242,33.7348285 68.1571528,33.7348285 Z M82.0230662,32.9828496 L82.0498602,32.9828496 L84.153192,24.7506596 L85.0909832,24.7506596 L82.5589469,34.2493404 L81.5541705,34.2493404 L79.3168686,25.8588391 L79.2900746,25.8588391 L77.0527726,34.2493404 L76.0479963,34.2493404 L73.556151,24.7506596 L74.4671482,24.7506596 L76.5436859,32.9828496 L76.57048,32.9828496 L78.8077819,24.7506596 L79.8259553,24.7506596 L82.0230662,32.9828496 Z M85.4794967,34.2493404 L89.2708527,24.7506596 L90.3024231,24.7506596 L94,34.2493404 L93.0622088,34.2493404 L91.9502563,31.26781 L87.5560345,31.26781 L86.417288,34.2493404 L85.4794967,34.2493404 Z M87.8641659,30.5026385 L91.6421249,30.5026385 L89.7531454,25.5158311 L87.8641659,30.5026385 Z" id="ENDOWA" fill="#2242BE"></path>
                </g>
            </g>
        </g>
    </g>
</svg>